<svg width="38" height="17" viewBox="0 0 38 17" fill="none" xmlns="http://www.w3.org/2000/svg">
<path d="M7.17556 2.06906C7.62255 1.51208 7.92588 0.764223 7.84588 0C7.19154 0.0324134 6.39304 0.430057 5.93075 0.987473C5.51567 1.46481 5.14828 2.24399 5.24406 2.97617C5.97859 3.03965 6.71244 2.61041 7.17556 2.06906Z" fill="#000008"/>
<path d="M7.83756 3.11914C6.77085 3.05584 5.86388 3.72226 5.35447 3.72226C4.84478 3.72226 4.0647 3.15104 3.22098 3.16644C2.12284 3.18251 1.10388 3.80106 0.546619 4.78484C-0.599577 6.7529 0.244138 9.67222 1.35875 11.2751C1.90004 12.0681 2.55237 12.9412 3.41193 12.9099C4.22406 12.8781 4.54239 12.386 5.52957 12.386C6.51603 12.386 6.80277 12.9099 7.66247 12.894C8.55399 12.8781 9.11135 12.1006 9.65263 11.3068C10.2736 10.4029 10.5278 9.53001 10.5438 9.4821C10.5278 9.46623 8.82465 8.81534 8.80886 6.86364C8.79278 5.22945 10.146 4.45214 10.2097 4.40394C9.44551 3.278 8.25151 3.15104 7.83756 3.11914Z" fill="#000008"/>
<path d="M17.1257 0.907535C19.4442 0.907535 21.0586 2.49964 21.0586 4.81763C21.0586 7.14389 19.4109 8.74426 17.0675 8.74426H14.5005V12.8111H12.6459V0.907533L17.1257 0.907535ZM14.5005 7.19337H16.6286C18.2434 7.19337 19.1624 6.32731 19.1624 4.8259C19.1624 3.32465 18.2434 2.4667 16.6369 2.4667H14.5005V7.19337Z" fill="#000008"/>
<path d="M21.5432 10.3446C21.5432 8.82666 22.7107 7.89457 24.781 7.77905L27.1656 7.63887V6.97075C27.1656 6.00555 26.5114 5.42813 25.4186 5.42813C24.3833 5.42813 23.7374 5.92297 23.5802 6.6985H21.891C21.9904 5.13106 23.3317 3.9762 25.4847 3.9762C27.5962 3.9762 28.9458 5.08985 28.9458 6.83041V12.8111H27.2317V11.384H27.1905C26.6855 12.3491 25.5841 12.9595 24.4414 12.9595C22.7356 12.9595 21.5432 11.9036 21.5432 10.3446ZM27.1656 9.56098V8.87631L25.0209 9.00821C23.9527 9.08252 23.3483 9.55271 23.3483 10.2951C23.3483 11.054 23.9776 11.549 24.9382 11.549C26.1884 11.549 27.1656 10.691 27.1656 9.56098Z" fill="#000008"/>
<path d="M30.5641 16.0035V14.5599C30.6964 14.5928 30.9944 14.5928 31.1436 14.5928C31.9716 14.5928 32.4188 14.2464 32.6919 13.3556C32.6919 13.339 32.8494 12.8276 32.8494 12.8193L29.7029 4.13293H31.6403L33.8432 11.1943H33.8761L36.0789 4.13293H37.9668L34.704 13.2647C33.9591 15.3684 33.0979 16.0448 31.2928 16.0448C31.1436 16.0448 30.6964 16.0282 30.5641 16.0035Z" fill="#000008"/>
</svg>
