<svg width="20" height="20" viewBox="0 0 20 20" fill="none" xmlns="http://www.w3.org/2000/svg">
<path d="M17.3 7.09144C17.3 7.24977 17.2417 7.40811 17.1167 7.53311C16.875 7.77477 16.475 7.77477 16.2333 7.53311L12.0583 3.35811C11.8167 3.11644 11.8167 2.71644 12.0583 2.47477C12.3 2.2331 12.7 2.2331 12.9417 2.47477L17.1167 6.64977C17.2333 6.77477 17.3 6.93311 17.3 7.09144Z" fill="#949D9E"/>
<path d="M13.1166 2.91683V17.0835C13.1166 17.4252 12.8333 17.7085 12.4916 17.7085C12.15 17.7085 11.8666 17.4252 11.8666 17.0835L11.8666 2.91683C11.8666 2.57516 12.15 2.29183 12.4916 2.29183C12.8333 2.29183 13.1166 2.57516 13.1166 2.91683Z" fill="#949D9E"/>
<path d="M8.13331 17.0831C8.13331 17.2415 8.07497 17.3998 7.94997 17.5248C7.7083 17.7665 7.3083 17.7665 7.06664 17.5248L2.89164 13.3498C2.64997 13.1081 2.64997 12.7081 2.89164 12.4665C3.1333 12.2248 3.53331 12.2248 3.77497 12.4665L7.94997 16.6415C8.06664 16.7581 8.13331 16.9248 8.13331 17.0831Z" fill="#949D9E"/>
<path d="M8.13336 2.91683V17.0835C8.13336 17.4252 7.85003 17.7085 7.50836 17.7085C7.1667 17.7085 6.88336 17.4252 6.88336 17.0835L6.88336 2.91683C6.88336 2.57516 7.1667 2.29183 7.50836 2.29183C7.85003 2.29183 8.13336 2.57516 8.13336 2.91683Z" fill="#949D9E"/>
</svg>
