<svg width="37" height="23" viewBox="0 0 37 23" fill="none" xmlns="http://www.w3.org/2000/svg">
<path d="M23.1734 2.40127H13.3086V20.0614H23.1734V2.40127Z" fill="#FF5F00"/>
<path d="M13.9351 11.2313C13.9335 9.53054 14.3204 7.85168 15.0664 6.32185C15.8124 4.79202 16.898 3.45133 18.2411 2.40127C16.5779 1.09894 14.5805 0.289044 12.4772 0.0641453C10.3738 -0.160754 8.2494 0.208411 6.3467 1.12946C4.44401 2.05051 2.83981 3.48628 1.71749 5.27265C0.595168 7.05903 0 9.12393 0 11.2313C0 13.3388 0.595168 15.4037 1.71749 17.19C2.83981 18.9764 4.44401 20.4122 6.3467 21.3332C8.2494 22.2543 10.3738 22.6234 12.4772 22.3985C14.5805 22.1736 16.5779 21.3637 18.2411 20.0614C16.898 19.0113 15.8124 17.6707 15.0664 16.1408C14.3204 14.611 13.9335 12.9321 13.9351 11.2313Z" fill="#EB001B"/>
<path d="M36.4816 11.2313C36.4817 13.3387 35.8866 15.4036 34.7643 17.19C33.642 18.9764 32.0379 20.4121 30.1352 21.3332C28.2326 22.2543 26.1082 22.6234 24.0049 22.3985C21.9015 22.1736 19.9042 21.3637 18.2411 20.0614C19.5829 19.0103 20.6677 17.6694 21.4136 16.1398C22.1595 14.6102 22.5471 12.9319 22.5471 11.2313C22.5471 9.53081 22.1595 7.85247 21.4136 6.32289C20.6677 4.7933 19.5829 3.45239 18.2411 2.40127C19.9042 1.09894 21.9015 0.289039 24.0049 0.0641424C26.1082 -0.160754 28.2326 0.208427 30.1352 1.12949C32.0379 2.05055 33.642 3.48632 34.7643 5.27269C35.8866 7.05906 36.4817 9.12395 36.4816 11.2313Z" fill="#F79E1B"/>
<path d="M35.406 18.1909V17.8294H35.5523V17.7557H35.1796V17.8294H35.326V18.1909H35.406ZM36.1296 18.1909V17.755H36.0153L35.8839 18.0549L35.7525 17.755H35.6382V18.1909H35.7188V17.8621L35.8421 18.1456H35.9257L36.0489 17.8614V18.1909H36.1296Z" fill="#F79E1B"/>
</svg>
