<svg width="130" height="24" viewBox="0 0 130 24" fill="none" xmlns="http://www.w3.org/2000/svg">
<path d="M6.66996 23.966C5.41262 23.966 4.27796 23.7283 3.26596 23.253C2.25396 22.793 1.45662 22.149 0.873956 21.321C0.291289 20.5083 -4.38802e-05 19.5807 -4.38802e-05 18.538C-4.38802e-05 18.216 0.0229561 17.7943 0.0689561 17.273C0.130289 16.7517 0.199289 16.1767 0.275956 15.548C0.367956 14.9193 0.459956 14.2677 0.551956 13.593C0.659289 12.9183 0.758956 12.282 0.850956 11.684L3.88696 12.121C3.73362 13.133 3.59562 14.0607 3.47296 14.904C3.35029 15.7473 3.25062 16.468 3.17396 17.066C3.11262 17.664 3.08196 18.124 3.08196 18.446C3.08196 19.0593 3.21996 19.573 3.49596 19.987C3.78729 20.4163 4.20129 20.7383 4.73796 20.953C5.27462 21.183 5.91862 21.298 6.66996 21.298H12.052C13.1713 21.298 14.007 21.068 14.559 20.608C15.111 20.1633 15.387 19.5193 15.387 18.676V8.303L16.146 8.97H13.248C12.5733 8.97 12.0443 9.05433 11.661 9.223C11.2776 9.39167 11.0093 9.706 10.856 10.166C10.7026 10.6107 10.626 11.247 10.626 12.075C10.626 12.9797 10.7026 13.6543 10.856 14.099C11.0093 14.5283 11.2776 14.8197 11.661 14.973C12.0443 15.111 12.5733 15.18 13.248 15.18H15.387V17.848H13.248C11.9446 17.848 10.8713 17.6487 10.028 17.25C9.18462 16.836 8.55596 16.1997 8.14196 15.341C7.74329 14.4823 7.54396 13.3937 7.54396 12.075C7.54396 10.8177 7.74329 9.75967 8.14196 8.901C8.55596 8.04233 9.18462 7.39833 10.028 6.969C10.8713 6.52433 11.9446 6.302 13.248 6.302H18.446V18.676C18.446 19.7647 18.1623 20.7 17.595 21.482C17.043 22.2793 16.284 22.8927 15.318 23.322C14.3673 23.7513 13.2786 23.966 12.052 23.966H6.66996ZM10.304 4.922V2.3H13.386V4.922H10.304ZM13.455 4.922V2.3H16.537V4.922H13.455ZM31.8805 17.848V15.18H34.2955V17.848H31.8805ZM25.6705 23.552C25.1031 23.552 24.5051 23.506 23.8765 23.414C23.2631 23.3373 22.6038 23.23 21.8985 23.092L22.3585 20.631C23.1251 20.723 23.7768 20.792 24.3135 20.838C24.8501 20.884 25.3025 20.907 25.6705 20.907C26.7745 20.907 27.5718 20.7077 28.0625 20.309C28.5531 19.9103 28.7985 19.3123 28.7985 18.515V8.418L29.5575 8.97H26.6825C26.0538 8.97 25.5478 9.04667 25.1645 9.2C24.7811 9.338 24.4975 9.637 24.3135 10.097C24.1448 10.5417 24.0605 11.224 24.0605 12.144C24.0605 13.018 24.1371 13.6773 24.2905 14.122C24.4591 14.5513 24.7351 14.835 25.1185 14.973C25.5018 15.111 26.0231 15.18 26.6825 15.18H28.7985V17.848H26.6825C25.3791 17.848 24.3058 17.641 23.4625 17.227C22.6191 16.813 21.9905 16.1843 21.5765 15.341C21.1778 14.4977 20.9785 13.432 20.9785 12.144C20.9785 10.856 21.1778 9.78267 21.5765 8.924C21.9905 8.05 22.6191 7.39833 23.4625 6.969C24.3058 6.52433 25.3791 6.302 26.6825 6.302H31.8805V18.515C31.8805 19.5577 31.6198 20.4547 31.0985 21.206C30.5925 21.9727 29.8718 22.5553 28.9365 22.954C28.0165 23.3527 26.9278 23.552 25.6705 23.552ZM34.2955 17.848V15.18C34.4795 15.18 34.6021 15.3027 34.6635 15.548C34.7248 15.778 34.7555 16.1 34.7555 16.514C34.7555 16.9127 34.7248 17.2347 34.6635 17.48C34.6021 17.7253 34.4795 17.848 34.2955 17.848ZM53.5957 17.848V15.18H56.0337V17.848H53.5957ZM47.8227 17.848C47.194 17.848 46.5654 17.733 45.9367 17.503C45.3234 17.2577 44.756 16.8973 44.2347 16.422L46.1207 14.467C46.4274 14.7123 46.711 14.8963 46.9717 15.019C47.2477 15.1263 47.5314 15.18 47.8227 15.18H52.1237L50.5367 16.629V11.523C50.5367 11.2777 50.506 10.9097 50.4447 10.419C50.3987 9.913 50.322 9.34567 50.2147 8.717C50.1227 8.073 50.0077 7.42133 49.8697 6.762L52.9057 6.302C53.013 6.854 53.1127 7.475 53.2047 8.165C53.312 8.83967 53.404 9.48367 53.4807 10.097C53.5574 10.695 53.5957 11.1703 53.5957 11.523V17.848H47.8227ZM34.2987 17.848V15.18H37.6567L36.9667 15.893V8.648H40.0487V17.848H34.2987ZM40.0487 17.848V15.18H41.9117C42.4024 15.18 42.778 15.111 43.0387 14.973C43.2994 14.8197 43.4757 14.5207 43.5677 14.076C43.675 13.616 43.7287 12.9337 43.7287 12.029V7.498H46.8107V12.029C46.8107 13.3937 46.6344 14.5053 46.2817 15.364C45.9444 16.2227 45.4154 16.8513 44.6947 17.25C43.974 17.6487 43.0464 17.848 41.9117 17.848H40.0487ZM34.2987 17.848C34.1147 17.848 33.992 17.7253 33.9307 17.48C33.8694 17.2347 33.8387 16.9127 33.8387 16.514C33.8387 16.1 33.8694 15.778 33.9307 15.548C33.992 15.3027 34.1147 15.18 34.2987 15.18V17.848ZM56.0337 17.848V15.18C56.2177 15.18 56.3404 15.3027 56.4017 15.548C56.463 15.778 56.4937 16.1 56.4937 16.514C56.4937 16.9127 56.463 17.2347 56.4017 17.48C56.3404 17.7253 56.2177 17.848 56.0337 17.848ZM56.0409 17.848V15.18H61.4919L59.6979 16.675V6.302H62.7569V17.848H56.0409ZM56.0409 17.848C55.8569 17.848 55.7342 17.7253 55.6729 17.48C55.6116 17.2347 55.5809 16.9127 55.5809 16.514C55.5809 16.1 55.6116 15.778 55.6729 15.548C55.7342 15.3027 55.8569 15.18 56.0409 15.18V17.848ZM56.9609 4.922V2.3H60.0429V4.922H56.9609ZM60.1119 4.922V2.3H63.1939V4.922H60.1119ZM70.0533 23.552C69.486 23.552 68.888 23.506 68.2593 23.414C67.646 23.3373 66.9866 23.23 66.2813 23.092L66.7413 20.631C67.508 20.723 68.1596 20.792 68.6963 20.838C69.233 20.884 69.6853 20.907 70.0533 20.907C71.1573 20.907 71.9546 20.7077 72.4453 20.309C72.936 19.9103 73.1813 19.3123 73.1813 18.515V8.418L73.9403 8.97H71.0653C70.4366 8.97 69.9306 9.04667 69.5473 9.2C69.164 9.338 68.8803 9.637 68.6963 10.097C68.5276 10.5417 68.4433 11.224 68.4433 12.144C68.4433 13.018 68.52 13.6773 68.6733 14.122C68.842 14.5513 69.118 14.835 69.5013 14.973C69.8846 15.111 70.406 15.18 71.0653 15.18H73.1813V17.848H71.0653C69.762 17.848 68.6886 17.641 67.8453 17.227C67.002 16.813 66.3733 16.1843 65.9593 15.341C65.5606 14.4977 65.3613 13.432 65.3613 12.144C65.3613 10.856 65.5606 9.78267 65.9593 8.924C66.3733 8.05 67.002 7.39833 67.8453 6.969C68.6886 6.52433 69.762 6.302 71.0653 6.302H76.2633V18.515C76.2633 19.5577 76.0026 20.4547 75.4813 21.206C74.9753 21.9727 74.2546 22.5553 73.3193 22.954C72.3993 23.3527 71.3106 23.552 70.0533 23.552ZM100.73 17.848V15.18H103.145V17.848H100.73ZM91.3463 17.848C88.8776 17.848 86.9993 17.3727 85.7113 16.422C84.4233 15.456 83.7793 14.03 83.7793 12.144C83.7793 11.776 83.8023 11.3927 83.8483 10.994C83.8943 10.58 83.9479 10.189 84.0093 9.821C84.0859 9.43767 84.1549 9.10033 84.2163 8.809C84.2776 8.51767 84.3236 8.303 84.3543 8.165L87.3443 8.74C87.2983 8.98533 87.2369 9.29967 87.1603 9.683C87.0836 10.0663 87.0146 10.4727 86.9533 10.902C86.8919 11.316 86.8613 11.7147 86.8613 12.098C86.8613 12.8953 87.0299 13.524 87.3673 13.984C87.7046 14.4287 88.2183 14.743 88.9083 14.927C89.5983 15.0957 90.4646 15.18 91.5073 15.18H97.6483V6.302H100.73V17.848H91.3463ZM103.145 17.848V15.18C103.329 15.18 103.452 15.3027 103.513 15.548C103.575 15.778 103.605 16.1 103.605 16.514C103.605 16.9127 103.575 17.2347 103.513 17.48C103.452 17.7253 103.329 17.848 103.145 17.848ZM90.9323 2.3V-9.53674e-07H93.6003V2.3H90.9323ZM88.7013 5.819V3.197H91.6683V5.819H88.7013ZM92.8873 5.819V3.197H95.8543V5.819H92.8873ZM115.055 17.848V15.18H117.493V17.848H115.055ZM103.141 17.848V15.18H113.031L111.996 16.031V11.776C111.996 10.856 111.705 10.1583 111.122 9.683C110.555 9.20767 109.65 8.97 108.408 8.97C108.056 8.97 107.573 9.00067 106.959 9.062C106.346 9.108 105.679 9.18467 104.958 9.292L104.659 6.854C105.319 6.70067 105.986 6.57033 106.66 6.463C107.35 6.35567 108.025 6.302 108.684 6.302C109.942 6.302 111.046 6.52433 111.996 6.969C112.947 7.39833 113.691 8.01933 114.227 8.832C114.779 9.64467 115.055 10.626 115.055 11.776V17.848H103.141ZM103.141 17.848C102.957 17.848 102.835 17.7253 102.773 17.48C102.712 17.2347 102.681 16.9127 102.681 16.514C102.681 16.1 102.712 15.778 102.773 15.548C102.835 15.3027 102.957 15.18 103.141 15.18V17.848ZM117.493 17.848V15.18C117.662 15.18 117.777 15.3027 117.838 15.548C117.915 15.778 117.953 16.1 117.953 16.514C117.953 16.9127 117.915 17.2347 117.838 17.48C117.777 17.7253 117.662 17.848 117.493 17.848ZM117.494 17.848V15.18H121.703L119.909 16.675V6.302H122.991V17.848H117.494ZM117.494 17.848C117.31 17.848 117.187 17.7253 117.126 17.48C117.065 17.2347 117.034 16.9127 117.034 16.514C117.034 16.1 117.065 15.778 117.126 15.548C117.187 15.3027 117.31 15.18 117.494 15.18V17.848ZM119.909 22.747V20.125H122.991V22.747H119.909ZM126.729 17.848V1.587H129.788V17.848H126.729Z" fill="#0C0D0D"/>
</svg>
