<svg width="195" height="28" viewBox="0 0 195 28" fill="none" xmlns="http://www.w3.org/2000/svg">
<path d="M2.54139e-05 17.226V1.517H10.143V4.185H3.17403V8.923H8.87803V11.591H3.17403V17.226H2.54139e-05ZM11.4283 17.226V5.68H14.4873V7.037C14.748 6.83766 15.07 6.63066 15.4533 6.416C15.8367 6.186 16.2507 5.979 16.6953 5.795C17.1553 5.59566 17.5923 5.46533 18.0063 5.404V8.371C17.6077 8.43233 17.186 8.53966 16.7413 8.693C16.2967 8.831 15.875 8.98433 15.4763 9.153C15.093 9.32166 14.7633 9.475 14.4873 9.613V17.226H11.4283ZM23.2841 17.479C22.2874 17.479 21.5131 17.272 20.9611 16.858C20.4244 16.4287 20.0411 15.7847 19.8111 14.926C19.5964 14.0673 19.4891 12.9863 19.4891 11.683V5.68H22.5481V11.545C22.5481 12.3577 22.5864 13.0017 22.6631 13.477C22.7551 13.9523 22.9314 14.2897 23.1921 14.489C23.4528 14.6883 23.8284 14.788 24.3191 14.788C24.7944 14.788 25.2391 14.7267 25.6531 14.604C26.0671 14.4813 26.3968 14.3587 26.6421 14.236V5.68H29.7011V17.226H26.6651V16.513C26.1438 16.8043 25.6224 17.042 25.1011 17.226C24.5951 17.3947 23.9894 17.479 23.2841 17.479ZM32.2272 17.226V5.68H35.2862V17.226H32.2272ZM32.2272 3.84V1.218H35.3092V3.84H32.2272ZM41.8904 17.502C41.0471 17.502 40.3647 17.3793 39.8434 17.134C39.3221 16.8887 38.9464 16.467 38.7164 15.869C38.5017 15.2557 38.3944 14.4047 38.3944 13.316V8.233H37.0374V5.68H38.3944V2.621H41.4534V5.68H44.3974V8.233H41.4534V12.511C41.4534 13.109 41.4764 13.5767 41.5224 13.914C41.5837 14.2513 41.7064 14.489 41.8904 14.627C42.0744 14.765 42.3581 14.834 42.7414 14.834C42.8487 14.834 43.0097 14.8263 43.2244 14.811C43.4391 14.7957 43.6537 14.7803 43.8684 14.765C44.0831 14.7497 44.2594 14.7343 44.3974 14.719L44.4894 17.18C44.2594 17.226 43.9757 17.272 43.6384 17.318C43.3164 17.364 42.9944 17.4023 42.6724 17.433C42.3657 17.479 42.1051 17.502 41.8904 17.502Z" fill="#1B5E37"/>
<path d="M46.108 17.226V5.68H49.167V17.226H46.108ZM46.108 3.84V1.218H49.19V3.84H46.108ZM52.1833 17.226V8.233H51.0333V5.68H52.1833V5.013C52.1833 3.92433 52.2829 3.06566 52.4823 2.437C52.6969 1.80833 53.0573 1.36366 53.5633 1.103C54.0693 0.84233 54.7516 0.711997 55.6103 0.711997C55.8556 0.711997 56.1469 0.72733 56.4843 0.757997C56.8369 0.773331 57.1743 0.79633 57.4963 0.826997C57.8183 0.857664 58.0636 0.88833 58.2323 0.918997L58.2093 3.265C57.9639 3.265 57.6879 3.265 57.3813 3.265C57.0899 3.24966 56.8369 3.242 56.6223 3.242C56.2849 3.242 56.0089 3.29566 55.7943 3.403C55.5949 3.51033 55.4493 3.68666 55.3573 3.932C55.2806 4.17733 55.2423 4.53 55.2423 4.99V5.68H58.0023V8.233H55.2423V17.226H52.1833ZM62.4136 22.079L63.8856 17.226H61.4246L58.6876 5.68H61.8846L63.9316 14.627H64.5296L66.5766 5.68H69.6586L65.6796 22.079H62.4136Z" fill="#F4A91F"/>
<path d="M82.9431 22.93C81.9464 22.93 81.0187 22.7843 80.1601 22.493C79.3167 22.217 78.5807 21.826 77.9521 21.32C77.3234 20.8293 76.8251 20.239 76.4571 19.549C76.1044 18.8743 75.9281 18.1383 75.9281 17.341C75.9281 17.0497 75.9511 16.674 75.9971 16.214C76.0431 15.754 76.1044 15.225 76.1811 14.627C76.2731 14.029 76.3727 13.3927 76.4801 12.718L79.5161 13.132C79.3627 14.098 79.2401 14.9567 79.1481 15.708C79.0561 16.4593 79.0101 16.9883 79.0101 17.295C79.0101 17.8777 79.1711 18.3913 79.4931 18.836C79.8151 19.2807 80.2674 19.6257 80.8501 19.871C81.4481 20.1317 82.1457 20.262 82.9431 20.262H89.4521C90.4487 20.262 91.1924 20.009 91.6831 19.503C92.1737 18.997 92.4191 18.261 92.4191 17.295V16.421H95.4781V17.295C95.4781 18.399 95.2327 19.3727 94.7421 20.216C94.2514 21.0593 93.5537 21.7187 92.6491 22.194C91.7597 22.6847 90.6941 22.93 89.4521 22.93H82.9431ZM91.4071 17.226C90.7017 17.226 90.0194 17.1493 89.3601 16.996C88.7161 16.8427 88.1027 16.5667 87.5201 16.168L89.2681 13.96C89.5134 14.1287 89.7281 14.259 89.9121 14.351C90.1114 14.4277 90.3261 14.4813 90.5561 14.512C90.8014 14.5427 91.0851 14.558 91.4071 14.558H96.4901V17.226H91.4071ZM96.4901 17.226V14.558C96.5667 14.558 96.6357 14.5887 96.6971 14.65C96.7584 14.7113 96.8044 14.8033 96.8351 14.926C96.8657 15.0487 96.8887 15.1943 96.9041 15.363C96.9347 15.5163 96.9501 15.6927 96.9501 15.892C96.9501 16.0913 96.9347 16.2753 96.9041 16.444C96.8887 16.6127 96.8657 16.7583 96.8351 16.881C96.8044 16.9883 96.7584 17.0727 96.6971 17.134C96.6357 17.1953 96.5667 17.226 96.4901 17.226ZM82.1611 27.668V25.046H85.1281V27.668H82.1611ZM86.3471 27.668V25.046H89.3141V27.668H86.3471ZM91.3596 17.226V14.558H102.101L101.158 15.363V7.681L101.94 8.348H99.0416C98.367 8.348 97.838 8.43233 97.4546 8.601C97.0713 8.76966 96.803 9.084 96.6496 9.544C96.4963 9.98866 96.4196 10.625 96.4196 11.453C96.4196 12.3577 96.4963 13.0323 96.6496 13.477C96.803 13.9063 97.0713 14.1977 97.4546 14.351C97.838 14.489 98.367 14.558 99.0416 14.558V16.95C97.7383 16.95 96.665 16.766 95.8216 16.398C94.9783 16.03 94.3496 15.4473 93.9356 14.65C93.537 13.8373 93.3376 12.7717 93.3376 11.453C93.3376 10.1957 93.537 9.13766 93.9356 8.279C94.3496 7.42033 94.9783 6.77633 95.8216 6.347C96.665 5.90233 97.7383 5.68 99.0416 5.68H104.24V17.226H91.3596ZM91.3596 17.226C91.2676 17.226 91.1986 17.1953 91.1526 17.134C91.0913 17.0727 91.0453 16.9883 91.0146 16.881C90.9686 16.7583 90.938 16.6127 90.9226 16.444C90.9073 16.2753 90.8996 16.0913 90.8996 15.892C90.8996 15.616 90.915 15.386 90.9456 15.202C90.9763 15.0027 91.03 14.8493 91.1066 14.742C91.168 14.6193 91.2523 14.558 91.3596 14.558V17.226ZM97.8226 3.564V0.941998H100.905V3.564H97.8226ZM128.727 17.226V14.558H131.142V17.226H128.727ZM119.343 17.226C117.702 17.226 116.314 17.0113 115.18 16.582C114.06 16.1527 113.209 15.5163 112.627 14.673C112.059 13.8297 111.776 12.7793 111.776 11.522C111.776 11.154 111.799 10.7707 111.845 10.372C111.891 9.958 111.944 9.567 112.006 9.199C112.082 8.81566 112.151 8.47833 112.213 8.187C112.274 7.89566 112.32 7.681 112.351 7.543L115.341 8.118C115.295 8.36333 115.233 8.67766 115.157 9.061C115.08 9.44433 115.011 9.85066 114.95 10.28C114.888 10.694 114.858 11.0927 114.858 11.476C114.858 12.074 114.95 12.5723 115.134 12.971C115.333 13.3697 115.624 13.6917 116.008 13.937C116.391 14.167 116.874 14.328 117.457 14.42C118.039 14.512 118.722 14.558 119.504 14.558H127.439L125.645 16.053V0.964998H128.727V17.226H119.343ZM131.142 17.226V14.558C131.234 14.558 131.303 14.5887 131.349 14.65C131.41 14.7113 131.456 14.8033 131.487 14.926C131.533 15.0487 131.563 15.1943 131.579 15.363C131.594 15.5163 131.602 15.6927 131.602 15.892C131.602 16.0913 131.594 16.2753 131.579 16.444C131.563 16.6127 131.533 16.7583 131.487 16.881C131.456 16.9883 131.41 17.0727 131.349 17.134C131.303 17.1953 131.234 17.226 131.142 17.226ZM118.86 8.555C118.568 8.20233 118.346 7.865 118.193 7.543C118.039 7.221 117.963 6.876 117.963 6.508C117.963 5.98666 118.101 5.519 118.377 5.105C118.653 4.67566 119.013 4.346 119.458 4.116C119.902 3.87066 120.393 3.748 120.93 3.748C121.221 3.748 121.52 3.78633 121.827 3.863C122.133 3.93966 122.394 4.05466 122.609 4.208L121.827 5.611C121.689 5.53433 121.551 5.48833 121.413 5.473C121.29 5.44233 121.16 5.427 121.022 5.427C120.654 5.427 120.37 5.52666 120.171 5.726C119.971 5.91 119.872 6.163 119.872 6.485C119.872 6.669 119.91 6.84533 119.987 7.014C120.063 7.18266 120.178 7.36666 120.332 7.566L118.86 8.555ZM117.457 8.739V7.06H123.023V8.739H117.457ZM131.138 17.226V14.558H135.347L133.553 16.053V5.68H136.635V17.226H131.138ZM131.138 17.226C131.046 17.226 130.977 17.1953 130.931 17.134C130.87 17.0727 130.824 16.9883 130.793 16.881C130.747 16.7583 130.716 16.6127 130.701 16.444C130.686 16.2753 130.678 16.0913 130.678 15.892C130.678 15.616 130.693 15.386 130.724 15.202C130.755 15.0027 130.808 14.8493 130.885 14.742C130.946 14.6193 131.031 14.558 131.138 14.558V17.226ZM133.553 22.125V19.503H136.635V22.125H133.553ZM148.441 17.226V14.558H151.063V17.226H148.441ZM145.382 17.226V0.964998H148.441V17.226H145.382ZM151.063 17.226V14.558C151.155 14.558 151.224 14.5887 151.27 14.65C151.331 14.7113 151.377 14.8033 151.408 14.926C151.454 15.0487 151.484 15.1943 151.5 15.363C151.515 15.5163 151.523 15.6927 151.523 15.892C151.523 16.0913 151.515 16.2753 151.5 16.444C151.484 16.6127 151.454 16.7583 151.408 16.881C151.377 16.9883 151.331 17.0727 151.27 17.134C151.224 17.1953 151.155 17.226 151.063 17.226ZM152.464 3.335V2.3H157.57V3.335H152.464ZM152.464 1.035V-3.45707e-06H157.57V1.035H152.464ZM156.558 17.226V14.558H158.973V17.226H156.558ZM151.061 17.226C150.969 17.226 150.9 17.1953 150.854 17.134C150.792 17.0727 150.746 16.9883 150.716 16.881C150.67 16.7583 150.639 16.6127 150.624 16.444C150.608 16.2753 150.601 16.0913 150.601 15.892C150.601 15.616 150.616 15.386 150.647 15.202C150.677 15.0027 150.731 14.8493 150.808 14.742C150.869 14.6193 150.953 14.558 151.061 14.558V17.226ZM151.061 17.226V14.558H155.27L153.476 16.053V5.68H156.558V17.226H151.061ZM158.973 17.226V14.558C159.065 14.558 159.141 14.5887 159.203 14.65C159.264 14.7113 159.31 14.8033 159.341 14.926C159.371 15.0487 159.394 15.1943 159.41 15.363C159.425 15.5163 159.433 15.6927 159.433 15.892C159.433 16.0913 159.425 16.2753 159.41 16.444C159.394 16.6127 159.371 16.7583 159.341 16.881C159.31 16.9883 159.264 17.0727 159.203 17.134C159.141 17.1953 159.065 17.226 158.973 17.226ZM153.476 22.125V19.503H156.558V22.125H153.476ZM158.967 17.226V14.558H168.857L167.822 15.409V11.154C167.822 10.234 167.531 9.53633 166.948 9.061C166.381 8.58566 165.476 8.348 164.234 8.348C163.881 8.348 163.398 8.37866 162.785 8.44C162.172 8.486 161.505 8.56266 160.784 8.67L160.485 6.232C161.144 6.07866 161.811 5.94833 162.486 5.841C163.176 5.73366 163.851 5.68 164.51 5.68C165.767 5.68 166.871 5.90233 167.822 6.347C168.773 6.77633 169.516 7.39733 170.053 8.21C170.605 9.02266 170.881 10.004 170.881 11.154V17.226H158.967ZM158.967 17.226C158.875 17.226 158.806 17.1953 158.76 17.134C158.699 17.0727 158.653 16.9883 158.622 16.881C158.576 16.7583 158.545 16.6127 158.53 16.444C158.515 16.2753 158.507 16.0913 158.507 15.892C158.507 15.616 158.522 15.386 158.553 15.202C158.584 15.0027 158.637 14.8493 158.714 14.742C158.775 14.6193 158.86 14.558 158.967 14.558V17.226ZM177.6 17.226V14.558H180.567V17.226H177.6ZM173.138 22.93C172.939 22.93 172.724 22.9223 172.494 22.907C172.264 22.8917 172.026 22.8687 171.781 22.838L171.896 20.216C172.141 20.2313 172.371 20.2467 172.586 20.262C172.816 20.2773 172.985 20.285 173.092 20.285C173.69 20.285 174.165 20.0473 174.518 19.572C174.886 19.0967 175.07 18.4297 175.07 17.571V5.68H178.152V17.571C178.152 18.6137 177.937 19.5413 177.508 20.354C177.094 21.1667 176.511 21.7953 175.76 22.24C175.009 22.7 174.135 22.93 173.138 22.93ZM180.567 17.226V14.558C180.659 14.558 180.728 14.5887 180.774 14.65C180.835 14.7113 180.881 14.8033 180.912 14.926C180.958 15.0487 180.989 15.1943 181.004 15.363C181.019 15.5163 181.027 15.6927 181.027 15.892C181.027 16.0913 181.019 16.2753 181.004 16.444C180.989 16.6127 180.958 16.7583 180.912 16.881C180.881 16.9883 180.835 17.0727 180.774 17.134C180.728 17.1953 180.659 17.226 180.567 17.226ZM180.574 17.226V14.558H192.511L191.108 15.754V11.522C191.108 10.694 191.016 10.05 190.832 9.59C190.648 9.11466 190.326 8.785 189.866 8.601C189.422 8.40166 188.801 8.302 188.003 8.302C187.375 8.302 186.754 8.348 186.14 8.44C185.542 8.51666 185.075 8.624 184.737 8.762L186.646 6.968C186.554 7.32066 186.462 7.76533 186.37 8.302C186.294 8.83866 186.225 9.41366 186.163 10.027C186.102 10.625 186.071 11.2153 186.071 11.798C186.071 12.3347 186.094 12.8943 186.14 13.477C186.202 14.0597 186.263 14.5733 186.324 15.018C186.401 15.4627 186.462 15.7693 186.508 15.938L183.587 16.743C183.526 16.5283 183.449 16.1757 183.357 15.685C183.265 15.1943 183.181 14.6117 183.104 13.937C183.043 13.2623 183.012 12.5493 183.012 11.798C183.012 11.0313 183.051 10.2953 183.127 9.59C183.204 8.86933 183.288 8.22533 183.38 7.658C183.488 7.07533 183.587 6.60766 183.679 6.255C184.047 6.117 184.622 5.979 185.404 5.841C186.186 5.703 187.053 5.634 188.003 5.634C189.383 5.634 190.526 5.82566 191.43 6.209C192.35 6.59233 193.033 7.21333 193.477 8.072C193.937 8.93066 194.167 10.0883 194.167 11.545V17.226H180.574ZM180.574 17.226C180.482 17.226 180.413 17.1953 180.367 17.134C180.306 17.0727 180.26 16.9883 180.229 16.881C180.183 16.7583 180.153 16.6127 180.137 16.444C180.122 16.2753 180.114 16.0913 180.114 15.892C180.114 15.616 180.13 15.386 180.16 15.202C180.191 15.0027 180.245 14.8493 180.321 14.742C180.383 14.6193 180.467 14.558 180.574 14.558V17.226Z" fill="#0C0D0D"/>
</svg>
