<svg width="50" height="14" viewBox="0 0 50 14" fill="none" xmlns="http://www.w3.org/2000/svg">
<path fill-rule="evenodd" clip-rule="evenodd" d="M5.95955 0.00139794H2.09674C1.83241 0.00139794 1.60759 0.192763 1.56637 0.452606L0.00405218 10.3193C-0.0270002 10.5141 0.124369 10.6896 0.322628 10.6896H2.16677C2.43111 10.6896 2.65592 10.4982 2.69714 10.2379L3.11852 7.57667C3.15916 7.31605 3.38453 7.12494 3.64832 7.12494H4.87115C7.41572 7.12494 8.88417 5.89837 9.26789 3.46788C9.44066 2.40455 9.2752 1.56904 8.77518 0.983746C8.22627 0.341429 7.25235 0.00139794 5.95955 0.00139794ZM6.40521 3.60509C6.19401 4.9858 5.13494 4.9858 4.11091 4.9858H3.528L3.93694 2.40716C3.96122 2.25146 4.09677 2.13664 4.25494 2.13664H4.5221C5.21965 2.13664 5.87774 2.13664 6.2178 2.53265C6.42037 2.76906 6.48258 3.12003 6.40521 3.60509ZM17.5064 3.56083H15.6566C15.499 3.56083 15.3628 3.67565 15.3385 3.83161L15.2567 4.34687L15.1273 4.16018C14.7269 3.58114 13.834 3.38769 12.9427 3.38769C10.8984 3.38769 9.15261 4.92982 8.81255 7.09318C8.63586 8.17213 8.88705 9.20395 9.50156 9.92359C10.0654 10.5852 10.872 10.8609 11.8315 10.8609C13.4785 10.8609 14.3921 9.80591 14.3921 9.80591L14.3095 10.318C14.2784 10.5138 14.4297 10.6893 14.6268 10.6893H16.2931C16.5581 10.6893 16.7816 10.498 16.8234 10.2376L17.8232 3.93107C17.8549 3.73709 17.704 3.56083 17.5064 3.56083ZM14.9279 7.14707C14.7494 8.19972 13.9106 8.90636 12.841 8.90636C12.3039 8.90636 11.8744 8.73477 11.5989 8.40958C11.3255 8.08673 11.2215 7.62693 11.3085 7.11505C11.4753 6.07126 12.3282 5.34171 13.3815 5.34171C13.9067 5.34171 14.3338 5.51537 14.615 5.84343C14.8968 6.17487 15.0087 6.63728 14.9279 7.14707ZM25.4993 3.56057H27.3583C27.6186 3.56057 27.7705 3.8514 27.6225 4.06411L21.44 12.9534C21.3399 13.0974 21.175 13.1831 20.9988 13.1831H19.1422C18.8808 13.1831 18.7281 12.8899 18.8795 12.6767L20.8046 9.96994L18.7572 3.9847C18.6863 3.77667 18.8405 3.56057 19.0627 3.56057H20.8893C21.1266 3.56057 21.336 3.71575 21.4045 3.942L22.491 7.55689L25.0549 3.79516C25.1553 3.64831 25.3221 3.56057 25.4993 3.56057Z" fill="#253B80"/>
<path fill-rule="evenodd" clip-rule="evenodd" d="M45.6543 10.3185L47.2396 0.271297C47.2639 0.115339 47.3996 0.000520727 47.5572 0H49.3419C49.539 0 49.6903 0.176004 49.6592 0.370756L48.0959 10.237C48.0551 10.4973 47.8303 10.6887 47.5655 10.6887H45.9716C45.7745 10.6887 45.6232 10.5132 45.6543 10.3185ZM33.5133 0.000516578H29.6498C29.386 0.000516578 29.1612 0.191884 29.1199 0.451727L27.5577 10.3185C27.5266 10.5132 27.6779 10.6887 27.8752 10.6887H29.8576C30.0419 10.6887 30.1995 10.5549 30.2282 10.3726L30.6715 7.5758C30.7123 7.31517 30.9376 7.12407 31.2013 7.12407H32.4236C34.9687 7.12407 36.4369 5.89749 36.8208 3.467C36.9941 2.40367 36.8276 1.56817 36.3279 0.98287C35.7792 0.340553 34.8061 0.000516578 33.5133 0.000516578ZM33.959 3.60421C33.7483 4.98492 32.6891 4.98492 31.6645 4.98492H31.0822L31.4917 2.40628C31.5161 2.25058 31.6504 2.13576 31.8091 2.13576H32.0762C32.7733 2.13576 33.432 2.13576 33.7718 2.53177C33.9746 2.76818 34.0363 3.11916 33.959 3.60421ZM45.0591 3.55995H43.2106C43.0517 3.55995 42.9168 3.67477 42.893 3.83073L42.8112 4.34599L42.6813 4.15931C42.2809 3.58026 41.3885 3.38681 40.4972 3.38681C38.4529 3.38681 36.7077 4.92894 36.3676 7.0923C36.1914 8.17125 36.4416 9.20307 37.0561 9.92271C37.6209 10.5843 38.4265 10.86 39.3861 10.86C41.033 10.86 41.9463 9.80503 41.9463 9.80503L41.864 10.3172C41.8329 10.513 41.9842 10.6884 42.1826 10.6884H43.8481C44.1119 10.6884 44.3367 10.4971 44.378 10.2367L45.3783 3.93019C45.4089 3.73622 45.2575 3.55995 45.0591 3.55995ZM42.4808 7.1462C42.3034 8.19884 41.4635 8.90547 40.3937 8.90547C39.8576 8.90547 39.4274 8.7339 39.1516 8.4087C38.8782 8.08585 38.7755 7.62605 38.8615 7.11418C39.029 6.07038 39.8809 5.34084 40.9342 5.34084C41.4596 5.34084 41.8865 5.5145 42.168 5.84256C42.4508 6.174 42.5627 6.6364 42.4808 7.1462Z" fill="#179BD7"/>
</svg>
