<svg width="47" height="16" viewBox="0 0 47 16" fill="none" xmlns="http://www.w3.org/2000/svg">
<path d="M23.1569 0.266234L20.0318 14.8193H16.253L19.3785 0.266234H23.1569ZM39.0562 9.66317L41.0457 4.19802L42.1905 9.66317H39.0562ZM43.2725 14.8193H46.7679L43.7177 0.266234H40.4914C39.7664 0.266234 39.1547 0.686311 38.8823 1.33393L33.2129 14.8193H37.1813L37.9692 12.6461H42.8175L43.2725 14.8193ZM33.4098 10.0676C33.426 6.22655 28.0779 6.01513 28.1149 4.29935C28.126 3.77656 28.6258 3.22198 29.7174 3.07965C30.2598 3.00918 31.7509 2.95529 33.444 3.73142L34.1071 0.645318C33.1976 0.316441 32.0274 0 30.5718 0C26.8369 0 24.2079 1.97833 24.1857 4.81109C24.1621 6.90595 26.0624 8.07499 27.4944 8.77143C28.9665 9.48492 29.4613 9.94184 29.4548 10.5798C29.4451 11.5568 28.2804 11.987 27.1938 12.004C25.2935 12.0339 24.1908 11.4932 23.3118 11.0851L22.6271 14.2739C23.5097 14.6779 25.1396 15.0288 26.8304 15.0468C30.7998 15.0468 33.3969 13.0929 33.4098 10.0676ZM17.757 0.266234L11.6344 14.8193H7.63915L4.6264 3.20494C4.4433 2.48961 4.28425 2.22798 3.72803 1.92628C2.82041 1.43573 1.32004 0.974655 0 0.689075L0.0901605 0.266234H6.52023C7.33954 0.266234 8.077 0.809755 8.26287 1.74986L9.85432 10.1717L13.7867 0.266234H17.757Z" fill="white"/>
</svg>
